 
http://www.shotpix.com/images/09682813214963418128.jpg


 
http://www.imdb.com/title/tt0837562/


Plot: Dracula, who operates a high-end resort away from the human world, goes into overprotective mode when a boy discovers the resort and falls for the count's teen-aged daughter.
 


Director: 
Genndy Tartakovsky

 Writers: 
Peter Baynham (screenplay), Robert Smigel (screenplay)

Stars:
 Adam Sandler, Kevin James and Andy Samberg

Genres:
 Animation | Comedy | Family 

Country:
USA 

Language:
English 

Format                                   : AVI
Format/Info                              : Audio Video Interleave
File size                                : 699 MiB
Duration                                 : 1h 31mn
Overall bit rate mode                    : Variable
Overall bit rate                         : 1 068 Kbps
Writing application                      : VirtualDubMod 1.5.10.2 (build 2540/release)
Writing library                          : VirtualDubMod build 2540/release

Video
ID                                       : 0
Format                                   : MPEG-4 Visual
Format profile                           : Advanced Simple@L5
Format settings, BVOP                    : 2
Format settings, QPel                    : No
Format settings, GMC                     : No warppoints
Format settings, Matrix                  : Default (H.263)
Codec ID                                 : XVID
Codec ID/Hint                            : XviD
Duration                                 : 1h 31mn
Bit rate                                 : 933 Kbps
Width                                    : 640 pixels
Height                                   : 352 pixels
Display aspect ratio                     : 16:9
Frame rate                               : 23.976 fps
Color space                              : YUV
Chroma subsampling                       : 4:2:0
Bit depth                                : 8 bits
Scan type                                : Progressive
Compression mode                         : Lossy
Bits/(Pixel*Frame)                       : 0.173
Stream size                              : 611 MiB (87%)
Writing library                          : XviD 61

Audio
ID                                       : 1
Format                                   : MPEG Audio
Format version                           : Version 1
Format profile                           : Layer 3
Mode                                     : Joint stereo
Mode extension                           : MS Stereo
Codec ID                                 : 55
Codec ID/Hint                            : MP3
Duration                                 : 1h 31mn
Bit rate mode                            : Variable
Bit rate                                 : 128 Kbps
Channel(s)                               : 2 channels
Sampling rate                            : 48.0 KHz
Compression mode                         : Lossy
Stream size                              : 80.2 MiB (11%)
Alignment                                : Aligned on interleaves
Interleave, duration                     : 24 ms (0.58 video frame)
Interleave, preload duration             : 498 ms
Writing library                          : LAME3.98 
Encoding settings                        : -m j -V 4 -q 2 -lowpass 17 --abr 128


 
http://www.shotpix.com/images/13172475034012719665.png 
http://www.shotpix.com/images/31049219621134369921.png 
http://www.shotpix.com/images/28340680027274617929.png 
http://www.shotpix.com/images/14580071240276319612.png